<svg version="1.1" id="Layer_1" xmlns="http://www.w3.org/2000/svg" xmlns:xlink="http://www.w3.org/1999/xlink" x="0px" y="0px"
	 width="100%" viewBox="0 0 200 200" enable-background="new 0 0 200 200" xml:space="preserve">
<path fill="#000000" opacity="1.000000" stroke="none" 
	d="
M121.000000,201.000000 
	C80.691574,201.000000 40.883148,201.000000 1.037362,201.000000 
	C1.037362,134.399948 1.037362,67.799866 1.037362,1.099894 
	C67.558250,1.099894 134.116699,1.099894 200.837585,1.099894 
	C200.837585,67.666344 200.837585,134.333145 200.837585,201.000000 
	C174.466812,201.000000 147.983414,201.000000 121.000000,201.000000 
M148.738632,156.245819 
	C149.900787,157.421280 150.904251,159.314468 152.260040,159.614258 
	C154.660522,160.145035 157.275177,159.707138 159.800232,159.674606 
	C159.745575,157.153305 160.104309,154.524933 159.488815,152.148926 
	C159.088348,150.603043 157.269653,149.424545 156.722794,147.803650 
	C160.500107,141.468460 164.854263,135.400116 167.934265,128.742340 
	C174.278870,115.027718 174.477936,100.362785 171.865799,85.847885 
	C168.771866,68.655884 159.555069,54.839069 145.912613,43.996964 
	C131.767563,32.755440 115.636826,28.293631 97.616325,28.874126 
	C81.134865,29.405046 66.649513,34.776096 54.335960,45.310738 
	C32.992538,63.570713 25.442337,86.977203 29.964148,114.559723 
	C33.827145,138.123550 47.781086,154.308014 67.695763,165.841965 
	C79.209251,172.510223 92.137871,173.337906 105.227295,173.064377 
	C121.703560,172.720093 135.881851,167.003387 148.738632,156.245819 
z"/>
<path fill="#38BDF8" opacity="1.000000" stroke="none" 
	d="
M148.081482,156.081085 
	C135.881851,167.003387 121.703560,172.720093 105.227295,173.064377 
	C92.137871,173.337906 79.209251,172.510223 67.695763,165.841965 
	C47.781086,154.308014 33.827145,138.123550 29.964148,114.559723 
	C25.442337,86.977203 32.992538,63.570713 54.335960,45.310738 
	C66.649513,34.776096 81.134865,29.405046 97.616325,28.874126 
	C115.636826,28.293631 131.767563,32.755440 145.912613,43.996964 
	C159.555069,54.839069 168.771866,68.655884 171.865799,85.847885 
	C174.477936,100.362785 174.278870,115.027718 167.934265,128.742340 
	C164.854263,135.400116 160.500107,141.468460 156.109039,147.774368 
	C152.274017,144.155975 149.052734,140.566864 145.990875,136.657928 
	C148.896957,131.612946 152.022293,127.063385 154.311646,122.126183 
	C159.109055,111.780228 158.957809,100.740448 157.273956,89.801292 
	C155.211166,76.400261 147.876587,66.058235 137.788376,57.166550 
	C124.049873,45.057518 107.893318,41.788593 90.640663,44.406189 
	C77.368095,46.419918 66.603973,53.551617 57.380665,63.824131 
	C44.972466,77.643845 41.887074,93.888367 44.344746,110.935295 
	C47.163116,130.484131 59.180752,144.422577 76.780876,153.270630 
	C87.579002,158.699158 99.398285,159.554688 110.924957,157.687866 
	C120.579704,156.124207 129.917603,152.338669 137.431580,145.177155 
	C141.165878,148.925797 144.623688,152.503448 148.081482,156.081085 
z"/>
<path fill="#0FA5FF" opacity="1.000000" stroke="none" 
	d="
M148.410065,156.163452 
	C144.623688,152.503448 141.165878,148.925797 137.293243,144.864777 
	C133.245102,140.739044 129.709000,136.992310 125.946396,133.488831 
	C123.156723,130.891281 123.109390,127.825623 124.873520,125.150993 
	C126.453270,122.755882 131.777267,124.071739 134.263885,126.530418 
	C137.954712,130.179764 141.960007,133.511078 145.831451,136.977753 
	C149.052734,140.566864 152.274017,144.155975 155.790833,147.913269 
	C157.269653,149.424545 159.088348,150.603043 159.488815,152.148926 
	C160.104309,154.524933 159.745575,157.153305 159.800232,159.674606 
	C157.275177,159.707138 154.660522,160.145035 152.260040,159.614258 
	C150.904251,159.314468 149.900787,157.421280 148.410065,156.163452 
z"/>
<path fill="#000000" opacity="1.000000" stroke="none" 
	d="
M145.990875,136.657928 
	C141.960007,133.511078 137.954712,130.179764 134.263885,126.530418 
	C131.777267,124.071739 126.453270,122.755882 124.873520,125.150993 
	C123.109390,127.825623 123.156723,130.891281 125.946396,133.488831 
	C129.709000,136.992310 133.245102,140.739044 137.016724,144.693771 
	C129.917603,152.338669 120.579704,156.124207 110.924957,157.687866 
	C99.398285,159.554688 87.579002,158.699158 76.780876,153.270630 
	C59.180752,144.422577 47.163116,130.484131 44.344746,110.935295 
	C41.887074,93.888367 44.972466,77.643845 57.380665,63.824131 
	C66.603973,53.551617 77.368095,46.419918 90.640663,44.406189 
	C107.893318,41.788593 124.049873,45.057518 137.788376,57.166550 
	C147.876587,66.058235 155.211166,76.400261 157.273956,89.801292 
	C158.957809,100.740448 159.109055,111.780228 154.311646,122.126183 
	C152.022293,127.063385 148.896957,131.612946 145.990875,136.657928 
z"/>
</svg>