<svg xmlns="http://www.w3.org/2000/svg" xmlns:v="https://svgstorm.com"
viewBox = "0 0 200 200"
width="200"
height="200">
<g fill="None" fill-opacity="0.0" stroke="#000000" stroke-opacity="0.00" stroke-width="0.3"><path d="
M 0.00 200.00 
L 200.00 200.00
L 200.00 0.00
L 0.00 0.00
L 0.00 200.00
M 155.00 147.00 
C 164.45 156.45 156.35 164.35 147.00 155.00
C 146.72 159.89 136.14 161.85 132.30 165.30 C 128.47 168.76 118.94 170.01 113.00 171.00 C 107.05 171.99 94.83 172.83 88.33 171.67 C 81.83 170.51 74.66 169.11 68.92 166.08 C 63.19 163.04 58.11 159.94 53.25 155.75 C 48.40 151.55 45.05 147.87 41.25 142.75 C 37.44 137.64 34.23 132.27 32.07 125.93 C 29.92 119.59 28.06 112.28 28.00 105.00 C 27.94 97.72 27.76 87.52 29.93 80.93 C 32.09 74.33 33.60 68.85 37.25 63.25 C 40.91 57.66 43.92 53.45 48.75 48.75 C 53.58 44.05 57.01 41.12 62.70 37.70 C 68.38 34.28 73.42 32.23 80.07 30.07 C 86.73 27.92 96.71 28.04 104.00 28.00 C 111.29 27.96 118.77 29.62 125.07 31.93 C 131.38 34.23 137.10 36.87 142.23 40.77 C 147.36 44.67 151.07 47.90 155.25 52.75 C 159.43 57.60 162.81 62.51 165.77 68.23 C 168.73 73.95 170.20 81.27 171.33 87.67 C 172.46 94.07 172.44 106.37 171.22 112.22 C 170.00 118.07 168.82 127.85 165.69 131.69 C 162.57 135.54 159.63 146.73 155.00 147.00 Z"/>
</g>
<g fill="None" fill-opacity="0.0" stroke="#37BDF8" stroke-opacity="0.93" stroke-width="0.3"><path d="
M 147.00 155.00 
C 143.41 151.41 139.16 147.10 136.00 144.00
C 135.82 149.36 124.26 150.87 119.92 153.92 C 115.59 156.98 104.67 157.02 98.77 157.21 C 92.87 157.41 82.95 155.43 77.31 152.69 C 71.66 149.96 66.35 146.80 61.75 142.25 C 57.16 137.70 52.85 134.32 49.75 128.25 C 46.64 122.19 43.87 116.12 43.02 108.98 C 42.17 101.83 42.94 91.38 44.78 84.78 C 46.61 78.17 48.61 72.26 52.92 66.92 C 57.22 61.58 60.96 57.68 66.25 53.25 C 71.54 48.82 77.50 47.26 84.02 45.02 C 90.54 42.78 99.18 42.33 106.00 43.00 C 112.82 43.67 120.46 45.62 126.22 48.78 C 131.99 51.94 136.63 55.21 141.25 59.75 C 145.86 64.29 148.70 69.55 151.92 75.08 C 155.15 80.60 156.81 89.67 157.00 96.00 C 157.19 102.33 157.06 114.65 154.07 119.07 C 151.08 123.50 149.94 135.80 144.00 136.00
C 147.07 139.13 151.50 143.50 155.00 147.00
C 159.63 146.73 162.57 135.54 165.69 131.69 C 168.82 127.85 170.00 118.07 171.22 112.22 C 172.44 106.37 172.46 94.07 171.33 87.67 C 170.20 81.27 168.73 73.95 165.77 68.23 C 162.81 62.51 159.43 57.60 155.25 52.75 C 151.07 47.90 147.36 44.67 142.23 40.77 C 137.10 36.87 131.38 34.23 125.07 31.93 C 118.77 29.62 111.29 27.96 104.00 28.00 C 96.71 28.04 86.73 27.92 80.07 30.07 C 73.42 32.23 68.38 34.28 62.70 37.70 C 57.01 41.12 53.58 44.05 48.75 48.75 C 43.92 53.45 40.91 57.66 37.25 63.25 C 33.60 68.85 32.09 74.33 29.93 80.93 C 27.76 87.52 27.94 97.72 28.00 105.00 C 28.06 112.28 29.92 119.59 32.07 125.93 C 34.23 132.27 37.44 137.64 41.25 142.75 C 45.05 147.87 48.40 151.55 53.25 155.75 C 58.11 159.94 63.19 163.04 68.92 166.08 C 74.66 169.11 81.83 170.51 88.33 171.67 C 94.83 172.83 107.05 171.99 113.00 171.00 C 118.94 170.01 128.47 168.76 132.30 165.30 C 136.14 161.85 146.72 159.89 147.00 155.00 Z"/>
</g>
<g fill="None" fill-opacity="0.0" stroke="#000000" stroke-opacity="0.00" stroke-width="0.3"><path d="
M 136.00 144.00 
C 132.22 140.30 118.45 129.38 124.11 124.11 C 129.77 118.84 140.15 132.07 144.00 136.00
C 149.94 135.80 151.08 123.50 154.07 119.07 C 157.06 114.65 157.19 102.33 157.00 96.00 C 156.81 89.67 155.15 80.60 151.92 75.08 C 148.70 69.55 145.86 64.29 141.25 59.75 C 136.63 55.21 131.99 51.94 126.22 48.78 C 120.46 45.62 112.82 43.67 106.00 43.00 C 99.18 42.33 90.54 42.78 84.02 45.02 C 77.50 47.26 71.54 48.82 66.25 53.25 C 60.96 57.68 57.22 61.58 52.92 66.92 C 48.61 72.26 46.61 78.17 44.78 84.78 C 42.94 91.38 42.17 101.83 43.02 108.98 C 43.87 116.12 46.64 122.19 49.75 128.25 C 52.85 134.32 57.16 137.70 61.75 142.25 C 66.35 146.80 71.66 149.96 77.31 152.69 C 82.95 155.43 92.87 157.41 98.77 157.21 C 104.67 157.02 115.59 156.98 119.92 153.92 C 124.26 150.87 135.82 149.36 136.00 144.00 Z"/>
</g>
<g fill="None" fill-opacity="0.0" stroke="#0EA5FE" stroke-opacity="0.95" stroke-width="0.3"><path d="
M 136.00 144.00 
C 139.16 147.10 143.41 151.41 147.00 155.00
C 156.35 164.35 164.45 156.45 155.00 147.00
C 151.50 143.50 147.07 139.13 144.00 136.00
C 140.15 132.07 129.77 118.84 124.11 124.11 C 118.45 129.38 132.22 140.30 136.00 144.00 Z"/>
</g>
<g fill="#000000" fill-opacity="0.00" stroke="None">
<path d="
M 0.00 200.00 
L 200.00 200.00
L 200.00 0.00
L 0.00 0.00
L 0.00 200.00
M 155.00 147.00 
C 164.45 156.45 156.35 164.35 147.00 155.00
C 146.72 159.89 136.14 161.85 132.30 165.30 C 128.47 168.76 118.94 170.01 113.00 171.00 C 107.05 171.99 94.83 172.83 88.33 171.67 C 81.83 170.51 74.66 169.11 68.92 166.08 C 63.19 163.04 58.11 159.94 53.25 155.75 C 48.40 151.55 45.05 147.87 41.25 142.75 C 37.44 137.64 34.23 132.27 32.07 125.93 C 29.92 119.59 28.06 112.28 28.00 105.00 C 27.94 97.72 27.76 87.52 29.93 80.93 C 32.09 74.33 33.60 68.85 37.25 63.25 C 40.91 57.66 43.92 53.45 48.75 48.75 C 53.58 44.05 57.01 41.12 62.70 37.70 C 68.38 34.28 73.42 32.23 80.07 30.07 C 86.73 27.92 96.71 28.04 104.00 28.00 C 111.29 27.96 118.77 29.62 125.07 31.93 C 131.38 34.23 137.10 36.87 142.23 40.77 C 147.36 44.67 151.07 47.90 155.25 52.75 C 159.43 57.60 162.81 62.51 165.77 68.23 C 168.73 73.95 170.20 81.27 171.33 87.67 C 172.46 94.07 172.44 106.37 171.22 112.22 C 170.00 118.07 168.82 127.85 165.69 131.69 C 162.57 135.54 159.63 146.73 155.00 147.00 Z"/>
</g>
<g fill="#37BDF8" fill-opacity="0.93" stroke="None">
<path d="
M 147.00 155.00 
C 143.41 151.41 139.16 147.10 136.00 144.00
C 135.82 149.36 124.26 150.87 119.92 153.92 C 115.59 156.98 104.67 157.02 98.77 157.21 C 92.87 157.41 82.95 155.43 77.31 152.69 C 71.66 149.96 66.35 146.80 61.75 142.25 C 57.16 137.70 52.85 134.32 49.75 128.25 C 46.64 122.19 43.87 116.12 43.02 108.98 C 42.17 101.83 42.94 91.38 44.78 84.78 C 46.61 78.17 48.61 72.26 52.92 66.92 C 57.22 61.58 60.96 57.68 66.25 53.25 C 71.54 48.82 77.50 47.26 84.02 45.02 C 90.54 42.78 99.18 42.33 106.00 43.00 C 112.82 43.67 120.46 45.62 126.22 48.78 C 131.99 51.94 136.63 55.21 141.25 59.75 C 145.86 64.29 148.70 69.55 151.92 75.08 C 155.15 80.60 156.81 89.67 157.00 96.00 C 157.19 102.33 157.06 114.65 154.07 119.07 C 151.08 123.50 149.94 135.80 144.00 136.00
C 147.07 139.13 151.50 143.50 155.00 147.00
C 159.63 146.73 162.57 135.54 165.69 131.69 C 168.82 127.85 170.00 118.07 171.22 112.22 C 172.44 106.37 172.46 94.07 171.33 87.67 C 170.20 81.27 168.73 73.95 165.77 68.23 C 162.81 62.51 159.43 57.60 155.25 52.75 C 151.07 47.90 147.36 44.67 142.23 40.77 C 137.10 36.87 131.38 34.23 125.07 31.93 C 118.77 29.62 111.29 27.96 104.00 28.00 C 96.71 28.04 86.73 27.92 80.07 30.07 C 73.42 32.23 68.38 34.28 62.70 37.70 C 57.01 41.12 53.58 44.05 48.75 48.75 C 43.92 53.45 40.91 57.66 37.25 63.25 C 33.60 68.85 32.09 74.33 29.93 80.93 C 27.76 87.52 27.94 97.72 28.00 105.00 C 28.06 112.28 29.92 119.59 32.07 125.93 C 34.23 132.27 37.44 137.64 41.25 142.75 C 45.05 147.87 48.40 151.55 53.25 155.75 C 58.11 159.94 63.19 163.04 68.92 166.08 C 74.66 169.11 81.83 170.51 88.33 171.67 C 94.83 172.83 107.05 171.99 113.00 171.00 C 118.94 170.01 128.47 168.76 132.30 165.30 C 136.14 161.85 146.72 159.89 147.00 155.00 Z"/>
</g>
<g fill="#000000" fill-opacity="0.00" stroke="None">
<path d="
M 136.00 144.00 
C 132.22 140.30 118.45 129.38 124.11 124.11 C 129.77 118.84 140.15 132.07 144.00 136.00
C 149.94 135.80 151.08 123.50 154.07 119.07 C 157.06 114.65 157.19 102.33 157.00 96.00 C 156.81 89.67 155.15 80.60 151.92 75.08 C 148.70 69.55 145.86 64.29 141.25 59.75 C 136.63 55.21 131.99 51.94 126.22 48.78 C 120.46 45.62 112.82 43.67 106.00 43.00 C 99.18 42.33 90.54 42.78 84.02 45.02 C 77.50 47.26 71.54 48.82 66.25 53.25 C 60.96 57.68 57.22 61.58 52.92 66.92 C 48.61 72.26 46.61 78.17 44.78 84.78 C 42.94 91.38 42.17 101.83 43.02 108.98 C 43.87 116.12 46.64 122.19 49.75 128.25 C 52.85 134.32 57.16 137.70 61.75 142.25 C 66.35 146.80 71.66 149.96 77.31 152.69 C 82.95 155.43 92.87 157.41 98.77 157.21 C 104.67 157.02 115.59 156.98 119.92 153.92 C 124.26 150.87 135.82 149.36 136.00 144.00 Z"/>
</g>
<g fill="#0EA5FE" fill-opacity="0.95" stroke="None">
<path d="
M 136.00 144.00 
C 139.16 147.10 143.41 151.41 147.00 155.00
C 156.35 164.35 164.45 156.45 155.00 147.00
C 151.50 143.50 147.07 139.13 144.00 136.00
C 140.15 132.07 129.77 118.84 124.11 124.11 C 118.45 129.38 132.22 140.30 136.00 144.00 Z"/>
</g>
</svg>